<svg xmlns="http://www.w3.org/2000/svg" viewBox="0 0 57.026 57.026">
	<rect stroke-width="1.78" fill="black" stroke="none" x="0" y="0" width="100%" height="100%" />
	<g fill="#daba69" transform="translate(28.5013,28.5013) scale(0.9,0.9) translate(-28.5013,-28.5013)">
		<path d="M46.354,51.987c-1.646-4.477-3.681-9.36-6.173-14.828c2.409-6.102-1.09-13.522-4.348-18.794 c-1.834-2.971-4.891-3.516-7.473-2.63c-4.955-0.49-9.952-0.904-14.565-0.835c-1.88,0.03-3.38,1.565-3.352,3.429
			c0.03,1.865,1.615,3.349,3.458,3.323c3.09-0.045,6.45,0.152,9.878,0.441c0.041,0.415,0.129,0.839,0.273,1.269l-5.808,3.37
			c-2.069,1.2-2.815,3.334-1.667,4.766c1.149,1.435,3.758,1.619,5.827,0.418l4.743-2.75c0.073,0.154,0.133,0.287,0.173,0.389
			c0.233,0.598,0.413,1.21,0.589,1.823c0.065,0.229,0.171,0.983,0.229,1.334c0,0.081-0.004,0.161-0.005,0.243
			c-0.014,0.052-0.021,0.084-0.028,0.115c-0.395,0.889-0.612,1.822-0.619,2.754c-3.7,4.566-7.147,9.914-9.719,15.164
			c-0.913,1.865-0.13,4.107,1.749,5.015c0.532,0.256,1.096,0.379,1.651,0.379c1.404,0,2.752-0.779,3.405-2.113
			c2.098-4.282,4.833-8.635,7.796-12.469c0.56,0.139,1.139,0.213,1.713,0.213c2.056,4.586,3.759,8.728,5.16,12.545
			c0.562,1.521,2.013,2.468,3.557,2.468c0.431,0,0.867-0.074,1.296-0.229C46.057,56.086,47.068,53.932,46.354,51.987z
			 M28.506,32.282c0.007-0.02,0.013-0.035,0.019-0.055c0.018-0.023,0.037-0.047,0.057-0.074
			C28.556,32.196,28.531,32.239,28.506,32.282z"/>
		<ellipse cx="25.449" cy="6.921" rx="6.98" ry="6.921"/>
	</g>
    <rect stroke-width="1.78%" fill="none" stroke="#daba69" x="1.78%" y="1.78%" width="96.44%" height="96.44%" />
</svg>
