<svg xmlns="http://www.w3.org/2000/svg" viewBox="0 0 130 130" height="130" width="130">
	<circle transform="scale(1.277264688543918,1.277264688543918)" stroke-width="1.78" fill="black" stroke="none" r="48.22" cy="50.89" cx="50.89" />
	<path fill="#daba69" transform="translate(75,75) scale(0.6,0.6) translate(-75,-75) translate(-278,0) matrix(1.3333333,0,0,-1.3333333,-180.53426,935.79824) translate(420.064,651.1567)" d="m 0,0 -13.652,-13.651 -21.445,0 -11.699,-11.697 0,11.697 -17.548,0 0,56.544 L 0,42.893 0,0 Z m -72.146,50.692 -3.899,-15.599 0,-70.19 17.55,0 0,-9.751 9.746,0 9.752,9.751 15.596,0 31.196,31.192 0,54.597 -79.941,0 z" />
	<path fill="#daba69" transform="translate(75,75) scale(0.6,0.6) translate(-75,-75) translate(-278,0) matrix(1.3333333,0,0,-1.3333333,-180.53426,935.79824)" d="m 377.167,655.053 7.799,0 0,23.401 -7.799,0 0,-23.401 z m 21.446,0 7.799,0 0,23.401 -7.799,0 0,-23.401 z" />
	<circle transform="scale(1.277264688543918,1.277264688543918)" stroke-width="1.78" fill="none" stroke="black" cx="50.89" cy="50.89" r="50" />
	<circle transform="scale(1.277264688543918,1.277264688543918)" stroke-width="1.78" fill="none" stroke="#daba69" r="48.22" cy="50.89" cx="50.89" />
</svg>
