<svg xmlns="http://www.w3.org/2000/svg" viewBox="0 0 512 512">
	<rect stroke-width="1.78" fill="black" stroke="none" x="0" y="0" width="100%" height="100%" />
	<path fill="#daba69" transform="translate(256,256) scale(0.9,0.9) translate(-256,-256)" d="M447.465,221.387C442.055,155.672,387.109,104,320,104c-48.047,0-89.857,26.512-111.75,65.668 C203.004,168.582,197.57,168,192,168c-33.766,0-62.502,20.984-74.242,50.57C110.756,216.945,103.496,216,96,216 c-53.02,0-96,42.98-96,96s42.98,96,96,96h320c53.02,0,96-42.98,96-96C512,270.02,485.008,234.422,447.465,221.387z M384,248 c-8.836,0-16-7.164-16-16c0-26.469-21.531-48-48-48c-8.836,0-16-7.164-16-16s7.164-16,16-16c44.109,0,80,35.891,80,80 C400,240.836,392.836,248,384,248z"/>
    <rect stroke-width="1.78%" fill="none" stroke="#daba69" x="1.78%" y="1.78%" width="96.44%" height="96.44%" />
</svg>
